<?xml version="1.0" encoding="utf-8"?>
<!-- Generator: Adobe Illustrator 21.1.0, SVG Export Plug-In . SVG Version: 6.00 Build 0)  -->
<svg version="1.1" xmlns="http://www.w3.org/2000/svg" xmlns:xlink="http://www.w3.org/1999/xlink" x="0px" y="0px"
	 viewBox="0 0 1000 1000" enable-background="new 0 0 1000 1000" xml:space="preserve">
<g id="background">
	<rect id="body" fill="none" width="1000" height="1000"/>
</g>
<g id="lampbulb">
	<path id="patronBottom" fill="none" d="M585.9,814.9v26.4c0,7.3-3.7,11-11,11H425.2c-7.3,0-11-3.7-11-11v-26.4c0-7.3,3.7-11,11-11
		H575C582.3,803.9,585.9,807.5,585.9,814.9z"/>
	<path id="patronTop" fill="none" d="M585.9,742.2v26.4c0,7.3-3.7,11-11,11H425.2c-7.3,0-11-3.7-11-11v-26.4c0-7.3,3.7-11,11-11H575
		C582.3,731.1,585.9,734.9,585.9,742.2z"/>
	<path id="beam7" fill="none" d="M810.5,528.6c-1.5,5.9-4.7,10.6-9.9,14.3c-5.2,3.7-10.6,5.5-16.6,5.5l-63.8-11
		c-7.3-1.5-12.9-4.4-16.6-8.8c-3.7-4.4-5.5-9.6-5.5-15.4c1.5-5.9,5.2-11,11-15.4c2.9-1.5,6.7-2.3,11-2.3h6.7l63.8,11
		c5.9,0,11,2.3,15.4,6.7C810.5,517.6,812.1,522.8,810.5,528.6z"/>
	<path id="beam6" fill="none" d="M808.3,352.4c-2.9,5.9-7.3,10.3-13.2,13.2l-57.3,24.2c-7.3,2.9-14,3.7-19.8,2.3
		c-5.9-1.5-9.6-5.2-11-11c-2.9-5.9-2.9-11.4,0-16.5c2.9-5.2,7.3-9.1,13.2-12.1l57.3-26.4c2.9-1.5,6.7-2.3,11-2.3h6.7
		c7.3,2.9,12.1,7,14.3,12.1C811.6,341,811.3,346.6,808.3,352.4z"/>
	<path id="beam5" fill="none" d="M691.6,224.7l-35.3,52.9c-2.9,5.9-7.7,9.9-14.3,12.1c-6.7,2.3-12.1,1.1-16.6-3.3
		c-4.4-2.9-7-7.3-7.7-13.2c-0.8-5.9,0.3-11.7,3.3-17.6l35.2-55c2.9-5.9,7.3-9.6,13.2-11h6.7c4.4,0,8.1,0.7,11,2.3
		C697.5,200.5,699,211.5,691.6,224.7z"/>
	<path id="beam4" fill="none" d="M522.1,171.9v63.8c0,5.9-1.8,11.4-5.5,16.6c-3.7,5.1-8.8,7.7-15.4,7.7c-6.7,0-11.7-2.6-15.4-7.7
		c-3.7-5.2-5.5-10.6-5.5-16.6v-63.8c0-7.3,2.3-13.2,6.7-17.6c2.9-4.4,7.3-6.7,13.2-6.7h2.3c5.9,0,10.6,2.3,14.3,6.7
		C520.3,158.7,522.1,164.6,522.1,171.9z"/>
	<path id="beam3" fill="none" d="M382.3,273.2c-0.7,5.9-3.3,10.3-7.7,13.2c-4.4,4.4-9.9,5.5-16.6,3.3c-6.7-2.3-11.4-6.2-14.3-12.2
		l-35.3-52.9c-4.4-5.9-5.9-11.7-4.4-17.6c1.5-5.9,4.4-11,8.8-15.4c2.9-1.5,6.7-2.3,11-2.3h6.7c5.9,1.5,10.3,5.2,13.2,11l35.3,55
		C381.9,261.4,382.9,267.3,382.3,273.2z"/>
	<path id="beam2" fill="none" d="M293.1,381.1c-1.5,5.9-5.2,9.6-11,11c-5.9,1.5-12.5,0.7-19.8-2.3l-57.3-24.2
		c-5.9-2.9-10.3-7.3-13.2-13.2c-2.9-5.9-3.3-11.4-1.1-16.6c2.3-5.2,7-9.1,14.3-12.1h6.7c4.4,0,8.1,0.8,11,2.3l57.3,26.4
		c5.9,2.9,10.3,7,13.2,12.1C296,369.7,296,375.2,293.1,381.1z"/>
	<path id="beam1" fill="none" d="M301.9,513.2c0,5.9-1.8,11-5.5,15.4c-3.7,4.4-9.1,7.3-16.6,8.8l-63.8,11c-5.9,0-11.4-1.8-16.6-5.5
		c-5.1-3.7-8.5-8.5-9.9-14.3c-1.5-5.9,0-11,4.4-15.4c4.4-4.4,9.6-6.7,15.4-6.7l63.8-11h4.4c5.9,0,10.3,0.8,13.2,2.3
		C296.7,502.1,300.4,507.3,301.9,513.2z"/>
	<path id="bulb" fill="none" d="M645.4,535.2l-33,66.1c-7.3,16.1-12.5,30.1-15.4,41.8c-1.5,1.5-3.3,9.1-5.5,23.1
		c-2.3,14-4.7,24.6-7.7,31.9c-2.9,4.4-6.5,7.3-11,8.8H427.4c-5.9-1.5-9.6-4.4-11-8.8c-2.9-7.3-5.5-16.9-7.7-28.6
		c-2.3-11.7-4.1-20.5-5.5-26.4c-2.9-11.7-8.1-25.7-15.4-41.8c-10.3-19.1-21.3-41.2-33-66.1C315,453,323.1,384,378.9,328.2
		c32.2-24.9,71.9-37.4,118.9-37.4h2.1c23.5,0,45.9,3.3,67.2,9.9c21.3,6.7,39.2,16.1,54,28.6c14.7,12.5,26.4,27.5,35.2,45.1
		C677,420,673.3,473.5,645.4,535.2z"/>
</g>
</svg>
