<?xml version="1.0" encoding="utf-8"?>
<!-- Generator: Adobe Illustrator 21.1.0, SVG Export Plug-In . SVG Version: 6.00 Build 0)  -->
<svg version="1.1" xmlns="http://www.w3.org/2000/svg" xmlns:xlink="http://www.w3.org/1999/xlink" x="0px" y="0px"
	 viewBox="0 0 1000 1000" enable-background="new 0 0 1000 1000" xml:space="preserve">
<g id="background">
	<rect id="body" width="1000" height="1000"/>
</g>
<g id="lampbulb">
	<path id="patronBottom" d="M599.7,865.6v30.6c0,8.5-4.3,12.8-12.8,12.8H413.2c-8.5,0-12.8-4.3-12.8-12.8v-30.6
		c0-8.5,4.3-12.8,12.8-12.8H587C595.5,852.8,599.7,857,599.7,865.6z"/>
	<path id="patronTop" d="M599.7,781.2v30.6c0,8.5-4.3,12.8-12.8,12.8H413.2c-8.5,0-12.8-4.3-12.8-12.8v-30.6
		c0-8.5,4.3-12.8,12.8-12.8H587C595.5,768.3,599.7,772.7,599.7,781.2z"/>
	<path id="beam7" d="M860.5,533.2c-1.7,6.8-5.5,12.3-11.5,16.6c-6,4.3-12.3,6.4-19.2,6.4l-74.1-12.8
		c-8.5-1.7-14.9-5.1-19.2-10.2c-4.3-5.1-6.4-11.1-6.4-17.9c1.7-6.8,6-12.8,12.8-17.9c3.4-1.7,7.7-2.6,12.8-2.6h7.7l74.1,12.8
		c6.8,0,12.8,2.6,17.9,7.7C860.5,520.4,862.3,526.4,860.5,533.2z"/>
	<path id="beam6" d="M858,328.7c-3.4,6.8-8.5,11.9-15.3,15.3l-66.5,28.1c-8.5,3.4-16.2,4.3-23,2.6
		c-6.8-1.7-11.1-6-12.8-12.8c-3.4-6.8-3.4-13.2,0-19.1c3.4-6,8.5-10.6,15.3-14l66.5-30.6c3.4-1.7,7.7-2.6,12.8-2.6h7.7
		c8.5,3.4,14,8.1,16.6,14C861.8,315.4,861.4,321.9,858,328.7z"/>
	<path id="beam5" d="M722.5,180.4l-41,61.4c-3.4,6.8-8.9,11.5-16.6,14c-7.7,2.6-14,1.3-19.2-3.8
		c-5.1-3.4-8.1-8.5-8.9-15.3c-0.9-6.8,0.4-13.6,3.8-20.4l40.8-63.9c3.4-6.8,8.5-11.1,15.3-12.8h7.7c5.1,0,9.4,0.8,12.8,2.6
		C729.3,152.3,731,165,722.5,180.4z"/>
	<path id="beam4" d="M525.6,119.1v74.1c0,6.8-2.1,13.2-6.4,19.2c-4.3,5.9-10.2,8.9-17.9,8.9s-13.6-3-17.9-8.9
		c-4.3-6-6.4-12.3-6.4-19.2v-74.1c0-8.5,2.6-15.3,7.7-20.4c3.4-5.1,8.5-7.7,15.3-7.7h2.6c6.8,0,12.3,2.6,16.6,7.7
		C523.5,103.8,525.6,110.6,525.6,119.1z"/>
	<path id="beam3" d="M363.3,236.6c-0.8,6.8-3.8,11.9-8.9,15.3c-5.1,5.1-11.5,6.4-19.2,3.8
		c-7.7-2.6-13.2-7.2-16.6-14.1l-41-61.4c-5.1-6.8-6.8-13.6-5.1-20.4c1.7-6.8,5.1-12.8,10.2-17.9c3.4-1.7,7.7-2.6,12.8-2.6h7.7
		c6.8,1.7,11.9,6,15.3,12.8l41,63.9C362.9,223,364.1,229.8,363.3,236.6z"/>
	<path id="beam2" d="M259.8,361.9c-1.7,6.8-6,11.1-12.8,12.8c-6.8,1.7-14.5,0.8-23-2.6L157.4,344
		c-6.8-3.4-11.9-8.5-15.3-15.3c-3.4-6.8-3.8-13.2-1.3-19.2c2.6-6,8.1-10.6,16.6-14h7.7c5.1,0,9.4,0.9,12.8,2.6l66.5,30.6
		c6.8,3.4,11.9,8.1,15.3,14C263.2,348.7,263.2,355.1,259.8,361.9z"/>
	<path id="beam1" d="M270,515.3c0,6.8-2.1,12.8-6.4,17.9s-10.6,8.5-19.2,10.2l-74.1,12.8c-6.8,0-13.2-2.1-19.2-6.4
		c-5.9-4.3-9.8-9.8-11.5-16.6c-1.7-6.8,0-12.8,5.1-17.9c5.1-5.1,11.1-7.7,17.9-7.7l74.1-12.8h5.1c6.8,0,11.9,0.9,15.3,2.6
		C264,502.5,268.3,508.5,270,515.3z"/>
	<path id="bulb" d="M668.8,540.8l-38.4,76.7c-8.5,18.7-14.5,34.9-17.9,48.6c-1.7,1.7-3.8,10.6-6.4,26.8
		s-5.5,28.5-8.9,37c-3.4,5.1-7.6,8.5-12.8,10.2H415.7c-6.8-1.7-11.1-5.1-12.8-10.2c-3.4-8.5-6.4-19.6-8.9-33.2
		c-2.6-13.6-4.7-23.8-6.4-30.6c-3.4-13.6-9.4-29.8-17.9-48.6c-11.9-22.1-24.7-47.8-38.4-76.7c-46.1-95.4-36.7-175.5,28.1-240.3
		c37.4-28.9,83.5-43.5,138.1-43.5h2.5c27.2,0,53.3,3.8,78,11.5c24.7,7.7,45.6,18.7,62.7,33.2c17,14.5,30.6,31.9,40.8,52.4
		C705.5,407.1,701.2,469.2,668.8,540.8z"/>
</g>
</svg>
